<svg width="360" height="538" viewBox="0 0 360 538" fill="none" xmlns="http://www.w3.org/2000/svg">
<path d="M159.008 21.9091C193.327 53.3149 204.891 92.1689 193.701 138.471C190.503 151.709 182.428 182.958 169.474 232.218C169.295 232.89 168.779 233.428 168.129 233.675C124.442 249.034 93.9848 278.243 76.7579 321.303C76.6683 321.512 76.616 321.781 76.601 322.11C76.5861 322.782 76.3545 322.954 75.9063 322.625C75.6373 322.424 75.5029 322.065 75.5477 321.684L120.415 1.02162C120.505 0.282045 121.245 -0.166184 121.939 0.0579306C135.849 4.74939 148.205 12.0331 159.008 21.9091Z" fill="#FF0A0A"/>
<path d="M95.6732 50.3267C96.4351 50.7301 96.861 51.5594 96.7489 52.411C86.6936 123.291 76.8401 194.283 67.1882 265.387C67.1285 265.85 67.1434 266.395 67.2331 267.023C67.3675 267.949 67.2555 268.479 66.8969 268.614C66.4487 268.793 65.9332 268.233 65.9108 267.516L57.7082 39.7037C57.6634 38.5383 58.7167 37.6419 59.8597 37.866C72.5744 40.3462 84.5123 44.4998 95.6732 50.3267Z" fill="#0086FF"/>
<path d="M37.6948 92.1016C42.0127 92.9533 44.0671 95.6202 43.858 100.103C43.7085 103.375 43.6338 105.048 43.6338 105.123C46.3083 179.738 49.0275 254.353 51.7916 328.968C51.814 329.282 51.6347 329.551 51.4106 329.528L51.1865 329.506C51.0744 329.483 50.9624 329.326 50.9176 329.147L0.0436309 89.4347C-0.225306 88.1124 0.783208 86.8798 2.12789 86.9022C13.0647 87.0366 23.3291 88.4486 32.9212 91.1379C33.1453 91.1977 34.7365 91.5189 37.6948 92.1016Z" fill="#08B52E"/>
<path d="M219.9 537.394C215.417 537.394 210.935 537.394 206.453 537.394C167.098 534.032 134.475 518.964 108.582 492.19C98.1384 481.388 89.5623 469.226 82.8538 455.704C68.0623 425.867 63.9311 394.432 70.4603 361.397C73.4186 346.382 78.5433 332.434 85.8345 319.555C101.552 291.78 124.569 270.96 154.884 257.094C168.137 251.043 182.017 247.233 196.525 245.665C234.146 241.616 268.151 250.506 298.541 272.334C324.075 290.667 341.818 314.744 351.768 344.566C351.97 345.149 351.612 345.754 351.029 345.889L282.36 361.083C281.71 361.218 281.06 360.904 280.747 360.322C274.442 347.622 265.753 337.522 254.682 330.021C244.029 322.79 231.905 318.584 218.308 317.404C195.09 315.387 175.264 323.492 158.829 341.72C145.232 356.78 138.935 373.918 139.936 393.132C140.713 408.327 145.643 422.184 154.727 434.705C166.71 451.26 183.317 460.822 204.548 463.392C216.575 464.856 227.863 463.72 238.411 459.985C249.871 455.921 259.62 449.414 267.658 440.465C279.492 427.287 285.879 411.039 286.82 391.72C286.887 390.42 287.806 389.344 289.061 389.075L356.789 374.575C357.394 374.441 357.976 374.844 358.111 375.449C360.008 384.578 360.113 395.231 358.425 407.408C351.582 456.683 327.445 493.43 286.013 517.65C266.949 528.796 244.911 535.377 219.9 537.394Z" fill="#FF8A00"/>
</svg>
